<svg id="Layer_1" data-name="Layer 1" xmlns="http://www.w3.org/2000/svg" viewBox="0 0 432 216"><defs><style>.cls-1{fill:#fff;}.cls-2{fill:#71716f;}.cls-3{fill:#6e6f71;}.cls-4{fill:#0f8041;}.cls-5{fill:#e97726;}</style></defs><rect class="cls-1" width="432" height="216"/><path class="cls-2" d="M34,154.93h2.77l-2.58,10.75a4.61,4.61,0,0,0,.22,3.6,3.27,3.27,0,0,0,2.94,1.2,5.13,5.13,0,0,0,3.5-1.2,6.77,6.77,0,0,0,1.94-3.6l2.57-10.75h2.81l-2.64,11a9.43,9.43,0,0,1-3.06,5.37,8.82,8.82,0,0,1-5.75,1.79q-3.57,0-4.89-1.78c-.89-1.18-1-3-.47-5.38Z"/><path class="cls-2" d="M47.77,172.64l4.41-18.41,8.37,10.82c.23.31.45.64.67,1s.46.74.69,1.18l2.94-12.28h2.59L63,173.32l-8.55-11a10.35,10.35,0,0,1-.64-.94,11.39,11.39,0,0,1-.55-1l-2.95,12.31Z"/><path class="cls-2" d="M67.21,172.64l4.24-17.71h2.8L70,172.64Z"/><path class="cls-2" d="M74.05,172.64l4.24-17.71h9.63l-.59,2.45H80.51l-1.06,4.41h6.82l-.6,2.53H78.85l-2,8.32Z"/><path class="cls-2" d="M86.77,172.64,91,154.93h2.8l-4.24,17.71Z"/><path class="cls-2" d="M93.61,172.64l4.23-17.71h9.63l-.58,2.45h-6.83L99,161.81h6.83l-.61,2.53H98.4L97,170.06h6.82l-.61,2.58Z"/><path class="cls-2" d="M106.45,172.64l4.24-17.71h3.79a23,23,0,0,1,5.1.38,5.29,5.29,0,0,1,2.33,1.28,5.38,5.38,0,0,1,1.54,3,10.06,10.06,0,0,1-.23,4.2,12.84,12.84,0,0,1-1.77,4.17,10.46,10.46,0,0,1-3,3,9.28,9.28,0,0,1-2.88,1.28,20.72,20.72,0,0,1-4.59.38h-4.54Zm3.43-2.6h2.36a12.5,12.5,0,0,0,3-.27,5.68,5.68,0,0,0,1.91-.9,7.44,7.44,0,0,0,2-2.13,9.94,9.94,0,0,0,1.2-3,8.08,8.08,0,0,0,.23-3,4,4,0,0,0-1-2.13,3.24,3.24,0,0,0-1.54-.9,13.35,13.35,0,0,0-3.12-.26h-2Z"/><path class="cls-2" d="M136.14,164.69l-1.9,7.95h-2.63l4.24-17.71h4.24a12.51,12.51,0,0,1,2.73.21,3.22,3.22,0,0,1,1.38.7,3,3,0,0,1,.87,1.66,5.33,5.33,0,0,1-.09,2.3,7.24,7.24,0,0,1-1,2.33,5.8,5.8,0,0,1-1.68,1.67,5.39,5.39,0,0,1-1.71.69,15,15,0,0,1-2.82.2h-1.62Zm.74-2.36h.72a7,7,0,0,0,3.24-.52,2.7,2.7,0,0,0,1.21-1.84,1.87,1.87,0,0,0-.35-2,4.91,4.91,0,0,0-2.92-.58h-.72Z"/><path class="cls-2" d="M154.54,172.64l-.87-4.56h-6.84l-3.09,4.56h-3l12.77-18.41,3.94,18.41Zm-6.09-7h4.8l-.8-4c0-.25-.07-.55-.1-.88s0-.71-.07-1.12c-.18.38-.37.74-.55,1.08s-.37.64-.55.92Z"/><path class="cls-2" d="M161.52,172.64l1.93-8.11-3.51-9.6h2.95l2.18,6c.05.16.11.36.18.61s.14.52.2.81c.18-.28.36-.55.54-.8a7.93,7.93,0,0,1,.55-.69l5.13-5.94h2.81l-8.24,9.6-1.94,8.11Z"/><path class="cls-2" d="M188.28,163.89c0-.13,0-.51.12-1.13s.11-.95.14-1.29a10.37,10.37,0,0,1-.59,1.21c-.23.41-.49.82-.78,1.24l-6.78,9.43-2.21-9.63q-.13-.58-.21-1.14c-.05-.38-.08-.74-.1-1.11a10.42,10.42,0,0,1-.37,1.17,13,13,0,0,1-.53,1.28L173,172.64h-2.58l8.5-18.46,2.41,11.18c0,.17.09.47.15.88s.14.92.22,1.52c.29-.51.7-1.15,1.24-1.93.15-.21.26-.37.33-.49L191,154.18l-.25,18.46h-2.6Z"/><path class="cls-2" d="M192.94,172.64l4.24-17.71h9.63l-.58,2.45H199.4l-1.06,4.43h6.82l-.6,2.53h-6.83l-1.37,5.72h6.83l-.62,2.58Z"/><path class="cls-2" d="M205.79,172.64l4.41-18.41,8.37,10.82c.22.31.45.64.67,1s.45.74.69,1.18l2.94-12.28h2.59l-4.4,18.39-8.55-11a10.35,10.35,0,0,1-.64-.94,9.35,9.35,0,0,1-.55-1l-2.95,12.31Z"/><path class="cls-2" d="M234.41,157.38l-3.65,15.26H228l3.65-15.26H227l.58-2.45h12l-.59,2.45Z"/><path class="cls-2" d="M237.32,169.09l2.5-1.06a2.38,2.38,0,0,0,.73,1.81,3,3,0,0,0,2,.62,3.44,3.44,0,0,0,2.16-.71,3.39,3.39,0,0,0,1.19-1.91c.25-1-.37-2-1.85-2.79l-.48-.26a8.65,8.65,0,0,1-3.19-2.58,3.71,3.71,0,0,1-.27-2.83,6,6,0,0,1,2.27-3.5,6.5,6.5,0,0,1,4.08-1.35,5.28,5.28,0,0,1,3,.76,2.85,2.85,0,0,1,1.26,2.17l-2.47,1.16a2.6,2.6,0,0,0-.84-1.22,2.2,2.2,0,0,0-1.33-.39,3.15,3.15,0,0,0-2,.61,2.77,2.77,0,0,0-1,1.62c-.25,1.06.48,2,2.21,3l.31.17a7.38,7.38,0,0,1,3,2.37,3.83,3.83,0,0,1,.27,2.88,7,7,0,0,1-2.5,4,7.2,7.2,0,0,1-4.53,1.48,4.93,4.93,0,0,1-3.37-1A3.74,3.74,0,0,1,237.32,169.09Z"/><path class="cls-2" d="M258.05,172.64l4.23-17.71h2.81l-4.24,17.71Z"/><path class="cls-2" d="M264.88,172.64l4.41-18.41,8.37,10.82c.22.31.45.64.67,1s.46.74.69,1.18L282,154.93h2.59l-4.4,18.39-8.55-11a10.35,10.35,0,0,1-.64-.94,11.39,11.39,0,0,1-.55-1l-3,12.31Z"/><path class="cls-2" d="M293.5,157.38l-3.65,15.26H287l3.66-15.26h-4.59l.59-2.45h11.95l-.59,2.45Z"/><path class="cls-2" d="M296.56,172.64l4.23-17.71h9.63l-.58,2.45H303L302,161.81h6.83l-.61,2.53h-6.82L300,170.06h6.82l-.61,2.58Z"/><path class="cls-2" d="M313.93,164.72l-1.9,7.92H309.4l4.24-17.71h3.92a11.34,11.34,0,0,1,2.61.23,3.2,3.2,0,0,1,1.44.76,3.1,3.1,0,0,1,.84,1.66,5.13,5.13,0,0,1-.1,2.22,6.5,6.5,0,0,1-1.8,3.34,5.69,5.69,0,0,1-3.3,1.44l4,8.06h-3.17l-3.84-7.92Zm.71-2.24h.51a6.36,6.36,0,0,0,3.08-.53,2.9,2.9,0,0,0,1.19-1.89,2.07,2.07,0,0,0-.29-2.06,4.33,4.33,0,0,0-2.76-.6h-.51Z"/><path class="cls-2" d="M322.93,172.64l4.23-17.71h9.63l-.58,2.45h-6.83l-1.05,4.41h6.82l-.6,2.53h-6.83l-2,8.32Z"/><path class="cls-2" d="M346.14,172.64l-.87-4.56h-6.84l-3.09,4.56h-2.95l12.76-18.41,4,18.41Zm-6.09-7h4.8l-.8-4c0-.25-.07-.55-.1-.88s-.05-.71-.07-1.12c-.18.38-.37.74-.56,1.08s-.36.64-.54.92Z"/><path class="cls-2" d="M367.36,159.24a6.08,6.08,0,0,0-2.15-1.56,6.58,6.58,0,0,0-2.66-.52A7.64,7.64,0,0,0,357.5,159a8.76,8.76,0,0,0-2.93,4.83,5.64,5.64,0,0,0,.6,4.72,4.43,4.43,0,0,0,3.91,1.87,8.87,8.87,0,0,0,3.05-.56,12.59,12.59,0,0,0,3.06-1.68l-.78,3.25a10.5,10.5,0,0,1-5.75,1.66,8.54,8.54,0,0,1-3.5-.67,6,6,0,0,1-2.48-2,6.51,6.51,0,0,1-1.23-3,9.63,9.63,0,0,1,.2-3.67,11.83,11.83,0,0,1,1.56-3.66,12.34,12.34,0,0,1,2.68-3,12.08,12.08,0,0,1,3.42-2,10.72,10.72,0,0,1,3.76-.67,8.33,8.33,0,0,1,2.79.45,7.41,7.41,0,0,1,2.35,1.38Z"/><path class="cls-2" d="M367.63,172.64l4.24-17.71h9.63l-.59,2.45h-6.82L373,161.81h6.83l-.61,2.53h-6.82l-1.37,5.72h6.82l-.61,2.58Z"/><path class="cls-3" d="M316.46,139.51H297.18L324,42.65h19.28Z"/><path class="cls-3" d="M306.45,45.71c-1.33-1.84-3.4-2.77-6.2-2.77h-106l-5.26,19h96.47l-5.62,20.27H202.64v0H183.36l-16,57.78h19.29l10.74-38.78h86.75a12.32,12.32,0,0,0,7.66-2.77,12.84,12.84,0,0,0,4.72-6.86l10.74-38.79Q308.43,48.48,306.45,45.71Z"/><path class="cls-3" d="M156.12,133.46a8.87,8.87,0,0,1-8.54,6.49H48.09A7,7,0,0,1,42,137.18a7.71,7.71,0,0,1-.85-6.86L65.47,42.93h19.3L63.08,121h77.21L162,42.93h19.3Z"/><polygon class="cls-4" points="376.59 42.83 401 91.38 349.68 139.92 376.59 42.83"/><polygon class="cls-5" points="359.47 42.83 383.87 91.38 332.52 139.92 359.47 42.83"/></svg>